<svg width="141" height="14" viewBox="0 0 141 14" fill="none" xmlns="http://www.w3.org/2000/svg">
<path d="M116.804 13.8131H109.215V0.466753H116.804V2.46683H111.608V5.86884H116.468V7.86892H111.608V11.7943H116.804V13.8131Z" fill="url(#paint0_linear_1_42861)"/>
<path d="M100.925 0.466753C102.097 0.466753 103.062 0.610061 103.823 0.896677C104.583 1.18329 105.15 1.61945 105.524 2.20514C105.897 2.77837 106.084 3.50737 106.084 4.39214C106.084 5.04014 105.96 5.59468 105.711 6.05576C105.474 6.51684 105.162 6.90315 104.776 7.21468C104.39 7.51376 103.972 7.75676 103.524 7.94369L107.355 13.8131H104.664L101.467 8.54184H99.5234V13.8131H97.1307V0.466753H100.925ZM100.776 2.46683H99.5234V6.57914H100.851C101.511 6.57914 102.047 6.49814 102.458 6.33614C102.869 6.17414 103.168 5.93737 103.355 5.62584C103.555 5.3143 103.654 4.92799 103.654 4.46691C103.654 3.98091 103.548 3.5946 103.337 3.30799C103.125 3.00891 102.807 2.79706 102.383 2.67245C101.972 2.53537 101.436 2.46683 100.776 2.46683Z" fill="url(#paint1_linear_1_42861)"/>
<path d="M94.2888 7.12122C94.2888 8.15553 94.1579 9.09638 93.8962 9.94377C93.647 10.7787 93.2607 11.5015 92.7373 12.1121C92.2264 12.7227 91.5722 13.19 90.7746 13.514C89.9895 13.838 89.0674 14 88.0081 14C86.9365 14 86.0018 13.838 85.2043 13.514C84.4192 13.1775 83.7712 12.7102 83.2603 12.1121C82.7494 11.5015 82.3631 10.7725 82.1014 9.92507C81.8521 9.07769 81.7275 8.13684 81.7275 7.10253C81.7275 5.7193 81.9518 4.51676 82.4005 3.49491C82.8615 2.47306 83.5531 1.68176 84.4753 1.12099C85.4099 0.547754 86.5938 0.261138 88.0268 0.261138C89.435 0.261138 90.6002 0.547754 91.5223 1.12099C92.4445 1.68176 93.1361 2.47929 93.5972 3.5136C94.0582 4.53545 94.2888 5.73799 94.2888 7.12122ZM84.251 7.12122C84.251 8.13061 84.3818 8.99669 84.6435 9.71946C84.9177 10.4422 85.3289 10.9968 85.8772 11.3831C86.438 11.7694 87.1483 11.9625 88.0081 11.9625C88.8929 11.9625 89.6095 11.7694 90.1578 11.3831C90.7061 10.9968 91.1111 10.4422 91.3728 9.71946C91.6345 8.99669 91.7653 8.13061 91.7653 7.12122C91.7653 5.61337 91.4725 4.42953 90.8868 3.56968C90.3011 2.70983 89.3478 2.27991 88.0268 2.27991C87.1545 2.27991 86.438 2.47306 85.8772 2.85937C85.3289 3.24568 84.9177 3.80022 84.6435 4.52299C84.3818 5.24576 84.251 6.11184 84.251 7.12122Z" fill="url(#paint2_linear_1_42861)"/>
<path d="M70.7418 13.8131L67.0781 2.87806H67.0034C67.0158 3.1273 67.0345 3.48245 67.0595 3.94353C67.0844 4.39214 67.1031 4.88437 67.1155 5.42022C67.1405 5.94361 67.1529 6.43584 67.1529 6.89691V13.8131H65.0033V0.466753H68.3305L71.8447 10.9531H71.9195L75.5832 0.466753H78.9104V13.8131H76.6299V6.78476C76.6299 6.36107 76.6362 5.89999 76.6486 5.40153C76.6735 4.8906 76.6922 4.41083 76.7047 3.96222C76.7296 3.50114 76.7483 3.14599 76.7608 2.89676H76.686L72.8728 13.8131H70.7418Z" fill="url(#paint3_linear_1_42861)"/>
<path d="M56.6715 13.8131H53.6994L47.3814 3.34537H47.3066C47.3191 3.61953 47.3316 3.91237 47.344 4.22391C47.3689 4.52299 47.3876 4.83453 47.4001 5.15853C47.4126 5.47007 47.425 5.78784 47.4375 6.11184C47.4499 6.43584 47.4624 6.75984 47.4749 7.08384V13.8131H45.3252V0.466753H48.2786L54.5779 10.8597H54.634C54.6216 10.6105 54.6091 10.3425 54.5966 10.0559C54.5842 9.75684 54.5717 9.45153 54.5593 9.13999C54.5593 8.82845 54.553 8.51069 54.5406 8.18668C54.5281 7.86268 54.5156 7.55115 54.5032 7.25207V0.466753H56.6715V13.8131Z" fill="url(#paint4_linear_1_42861)"/>
<path d="M37.0355 0.466753C38.2069 0.466753 39.1726 0.610061 39.9328 0.896677C40.693 1.18329 41.26 1.61945 41.6338 2.20514C42.0076 2.77837 42.1946 3.50737 42.1946 4.39214C42.1946 5.04014 42.07 5.59468 41.8207 6.05576C41.584 6.51684 41.2724 6.90315 40.8861 7.21468C40.4998 7.51376 40.0823 7.75676 39.6337 7.94369L43.4656 13.8131H40.774L37.5776 8.54184H35.6336V13.8131H33.2409V0.466753H37.0355ZM36.8859 2.46683H35.6336V6.57914H36.9607C37.6212 6.57914 38.157 6.49814 38.5683 6.33614C38.9795 6.17414 39.2786 5.93737 39.4655 5.62584C39.6649 5.3143 39.7646 4.92799 39.7646 4.46691C39.7646 3.98091 39.6586 3.5946 39.4468 3.30799C39.235 3.00891 38.9172 2.79706 38.4935 2.67245C38.0823 2.53537 37.5464 2.46683 36.8859 2.46683Z" fill="url(#paint5_linear_1_42861)"/>
<path d="M28.9436 13.8131L27.7286 10.2802H22.7004L21.5041 13.8131H18.9619L23.8593 0.410677H26.5884L31.4858 13.8131H28.9436ZM25.9528 4.78468C25.903 4.61022 25.8282 4.37345 25.7285 4.07437C25.6288 3.7753 25.5291 3.46999 25.4295 3.15845C25.3422 2.83445 25.2737 2.56652 25.2238 2.35468C25.1615 2.60391 25.0805 2.89052 24.9808 3.21453C24.8936 3.53853 24.8064 3.84383 24.7191 4.13045C24.6444 4.41707 24.5821 4.63514 24.5322 4.78468L23.3546 8.22407H27.1118L25.9528 4.78468Z" fill="url(#paint6_linear_1_42861)"/>
<path d="M17.8662 13.8131H10.2771V0.466753H17.8662V2.46683H12.6697V5.86884H17.5298V7.86892H12.6697V11.7943H17.8662V13.8131Z" fill="url(#paint7_linear_1_42861)"/>
<path d="M0 13.8131V0.466753H2.39262V11.7943H7.96293V13.8131H0Z" fill="url(#paint8_linear_1_42861)"/>
<path fill-rule="evenodd" clip-rule="evenodd" d="M129.342 7.22605e-05L139.896 0C140.457 0.000731757 140.885 0.45861 140.885 0.988814L140.885 11.7339L138.933 11.7339L138.933 3.37198L129.167 13.3142L127.775 11.9463L137.591 1.95222L129.342 1.95227L129.342 7.22605e-05Z" fill="url(#paint9_linear_1_42861)"/>
<defs>
<linearGradient id="paint0_linear_1_42861" x1="7.36546e-06" y1="14" x2="17.9458" y2="-40.4894" gradientUnits="userSpaceOnUse">
<stop stop-color="#187AC9"/>
<stop offset="1" stop-color="#C5D6E3"/>
</linearGradient>
<linearGradient id="paint1_linear_1_42861" x1="7.36546e-06" y1="14" x2="17.9458" y2="-40.4894" gradientUnits="userSpaceOnUse">
<stop stop-color="#187AC9"/>
<stop offset="1" stop-color="#C5D6E3"/>
</linearGradient>
<linearGradient id="paint2_linear_1_42861" x1="7.36546e-06" y1="14" x2="17.9458" y2="-40.4894" gradientUnits="userSpaceOnUse">
<stop stop-color="#187AC9"/>
<stop offset="1" stop-color="#C5D6E3"/>
</linearGradient>
<linearGradient id="paint3_linear_1_42861" x1="7.36546e-06" y1="14" x2="17.9458" y2="-40.4894" gradientUnits="userSpaceOnUse">
<stop stop-color="#187AC9"/>
<stop offset="1" stop-color="#C5D6E3"/>
</linearGradient>
<linearGradient id="paint4_linear_1_42861" x1="7.36546e-06" y1="14" x2="17.9458" y2="-40.4894" gradientUnits="userSpaceOnUse">
<stop stop-color="#187AC9"/>
<stop offset="1" stop-color="#C5D6E3"/>
</linearGradient>
<linearGradient id="paint5_linear_1_42861" x1="7.36546e-06" y1="14" x2="17.9458" y2="-40.4894" gradientUnits="userSpaceOnUse">
<stop stop-color="#187AC9"/>
<stop offset="1" stop-color="#C5D6E3"/>
</linearGradient>
<linearGradient id="paint6_linear_1_42861" x1="7.36546e-06" y1="14" x2="17.9458" y2="-40.4894" gradientUnits="userSpaceOnUse">
<stop stop-color="#187AC9"/>
<stop offset="1" stop-color="#C5D6E3"/>
</linearGradient>
<linearGradient id="paint7_linear_1_42861" x1="7.36546e-06" y1="14" x2="17.9458" y2="-40.4894" gradientUnits="userSpaceOnUse">
<stop stop-color="#187AC9"/>
<stop offset="1" stop-color="#C5D6E3"/>
</linearGradient>
<linearGradient id="paint8_linear_1_42861" x1="7.36546e-06" y1="14" x2="17.9458" y2="-40.4894" gradientUnits="userSpaceOnUse">
<stop stop-color="#187AC9"/>
<stop offset="1" stop-color="#C5D6E3"/>
</linearGradient>
<linearGradient id="paint9_linear_1_42861" x1="7.36546e-06" y1="14" x2="17.9458" y2="-40.4894" gradientUnits="userSpaceOnUse">
<stop stop-color="#187AC9"/>
<stop offset="1" stop-color="#C5D6E3"/>
</linearGradient>
</defs>
</svg>
